<?xml version="1.0" standalone="no"?>
<!DOCTYPE svg PUBLIC "-//W3C//DTD SVG 20010904//EN"
 "http://www.w3.org/TR/2001/REC-SVG-20010904/DTD/svg10.dtd">
<svg version="1.0" xmlns="http://www.w3.org/2000/svg"
 width="128.000000pt" height="128.000000pt" viewBox="0 0 128.000000 128.000000"
 preserveAspectRatio="xMidYMid meet">
<metadata>
Created by potrace 1.11, written by Peter Selinger 2001-2013
</metadata>
<g transform="translate(0.000000,128.000000) scale(0.100000,-0.100000)"
fill="#000000" stroke="none">
<path d="M376 1163 c-3 -4 -31 -6 -60 -4 -51 2 -56 0 -70 -26 -14 -25 -15 -26
-16 -6 0 27 -19 41 -21 16 -1 -10 -2 -51 -3 -91 -1 -53 -5 -75 -16 -82 -11 -8
-12 -12 -3 -18 8 -5 11 -32 10 -77 l-2 -70 45 0 45 0 3 45 c1 25 5 52 9 60 3
8 5 24 4 34 -2 11 0 38 4 62 l6 43 138 3 138 3 0 -225 c0 -124 2 -312 4 -418
5 -222 7 -215 -86 -227 -62 -7 -89 -28 -81 -59 3 -12 6 -24 6 -28 0 -5 87 -8
194 -8 143 0 196 3 204 13 5 6 10 29 10 50 l0 37 -56 0 c-108 0 -97 -42 -96
383 1 387 4 445 25 458 7 4 67 7 133 6 l121 -2 -4 -100 c-3 -113 3 -126 56
-118 40 6 46 28 39 139 -3 43 -6 107 -7 141 l-2 61 -49 -2 c-27 -1 -51 1 -53
5 -3 3 -30 2 -60 -3 -31 -5 -60 -6 -66 -3 -13 9 -435 16 -443 8z m5 -40 c-5
-10 -16 -27 -25 -38 -22 -28 -20 0 2 30 20 28 37 33 23 8z m283 -30 c-21 -27
-39 -50 -41 -52 -2 -2 -6 -1 -10 3 -4 3 -2 11 4 17 6 6 9 17 7 24 -3 7 0 16 7
21 9 5 10 2 5 -12 -5 -13 4 -8 26 14 46 45 47 40 2 -15z m46 3 c-19 -18 -41
-44 -49 -59 -8 -14 -25 -37 -39 -49 l-24 -23 7 25 c12 40 120 158 133 145 4
-3 -9 -21 -28 -39z m-370 27 c-1 -15 -30 -46 -37 -40 -3 4 2 16 12 27 19 21
25 24 25 13z m270 4 c0 -2 -10 -12 -21 -23 -22 -19 -22 -19 -8 4 12 19 29 30
29 19z m151 -15 c-5 -10 -18 -25 -27 -33 -16 -12 -17 -12 -9 1 10 18 37 50 42
50 2 0 -1 -8 -6 -18z m39 9 c0 -14 -47 -67 -54 -61 -5 5 41 70 50 70 2 0 4 -4
4 -9z m41 -8 c-12 -23 -61 -69 -61 -58 0 8 60 75 67 75 2 0 -1 -8 -6 -17z m28
-20 c-18 -21 -35 -40 -36 -42 -2 -2 -5 -2 -8 0 -7 7 55 79 68 79 6 0 -5 -17
-24 -37z m-309 24 c0 -2 -10 -12 -22 -23 l-23 -19 19 23 c18 21 26 27 26 19z
m350 -32 c-19 -19 -38 -35 -44 -35 -5 0 5 16 24 35 19 19 38 35 44 35 5 0 -5
-16 -24 -35z m-450 10 c-7 -8 -17 -15 -22 -15 -6 0 -5 7 2 15 7 8 17 15 22 15
6 0 5 -7 -2 -15z m-180 -5 c0 -5 -5 -10 -11 -10 -5 0 -7 5 -4 10 3 6 8 10 11
10 2 0 4 -4 4 -10z m675 -10 c-10 -11 -23 -20 -28 -20 -6 0 -2 9 8 20 10 11
23 20 28 20 6 0 2 -9 -8 -20z m45 6 c0 -2 -8 -10 -17 -17 -16 -13 -17 -12 -4
4 13 16 21 21 21 13z m-750 -46 c-6 -12 -14 -19 -17 -17 -2 3 1 15 7 27 6 12
14 19 17 17 2 -3 -1 -15 -7 -27z m752 -12 c-7 -7 -12 -8 -12 -2 0 14 12 26 19
19 2 -3 -1 -11 -7 -17z m28 -17 c0 -9 -44 -41 -56 -41 -9 0 39 50 49 50 4 0 7
-4 7 -9z m-360 -4 c0 -2 -12 -14 -27 -28 l-28 -24 24 28 c23 25 31 32 31 24z
m360 -46 c0 -5 -11 -16 -25 -25 -21 -14 -25 -14 -25 -2 0 8 8 20 18 25 21 13
32 14 32 2z m-380 -15 c0 -2 -8 -10 -17 -17 -16 -13 -17 -12 -4 4 13 16 21 21
21 13z m-380 -30 c0 -15 -40 -69 -47 -63 -4 5 36 77 43 77 2 0 4 -6 4 -14z
m-30 0 c0 -3 -4 -8 -10 -11 -5 -3 -10 -1 -10 4 0 6 5 11 10 11 6 0 10 -2 10
-4z m394 -31 c-26 -34 -42 -47 -28 -22 9 15 46 57 51 57 2 0 -8 -16 -23 -35z
m386 19 c-14 -16 -50 -38 -50 -30 0 9 43 46 53 46 5 0 4 -7 -3 -16z m-377 -54
c-9 -16 -21 -30 -25 -30 -5 0 1 14 14 30 12 17 23 30 25 30 2 0 -4 -13 -14
-30z m377 15 c-7 -8 -18 -15 -24 -15 -6 0 -2 7 8 15 25 19 32 19 16 0z m-754
-17 c-1 -23 -26 -39 -26 -16 0 11 18 38 26 38 1 0 1 -10 0 -22z m374 -41 c0
-2 -10 -12 -21 -23 -22 -19 -22 -19 -8 4 12 19 29 30 29 19z m-1 -43 c-17 -18
-20 -27 -11 -33 9 -6 8 -12 -7 -25 -19 -18 -20 -17 -18 7 2 25 46 91 55 82 3
-3 -5 -17 -19 -31z m-18 -97 c-10 -9 -11 -8 -5 6 3 10 9 15 12 12 3 -3 0 -11
-7 -18z m18 -73 c-31 -33 -37 -22 -8 14 13 16 26 25 28 20 2 -5 -7 -20 -20
-34z m21 -11 c-1 -5 -12 -21 -25 -38 -30 -36 -34 -19 -4 19 21 26 29 32 29 19z
m10 -77 c0 -10 -49 -54 -54 -49 -7 7 33 53 46 53 4 0 8 -2 8 -4z m-20 -131
c-13 -14 -26 -23 -28 -20 -7 7 29 45 41 45 6 0 0 -11 -13 -25z m20 -20 c0 -2
-10 -9 -22 -15 -22 -11 -22 -10 -4 4 21 17 26 19 26 11z m0 -29 c0 -2 -8 -10
-17 -17 -16 -13 -17 -12 -4 4 13 16 21 21 21 13z m0 -39 c0 -2 -10 -12 -22
-23 l-23 -19 19 23 c18 21 26 27 26 19z m-18 -60 c-25 -26 -30 -46 -7 -27 28
24 15 4 -33 -48 -27 -29 -52 -52 -57 -52 -5 0 11 20 35 45 24 25 38 45 30 45
-8 0 -3 11 15 30 16 17 31 30 34 30 2 0 -5 -10 -17 -23z m-125 -93 c-15 -15
-27 -23 -27 -19 0 12 42 56 48 50 3 -3 -7 -17 -21 -31z m106 6 c-27 -31 -40
-39 -27 -18 14 23 38 48 46 48 5 0 -4 -13 -19 -30z m37 -5 c-13 -14 -26 -23
-28 -20 -3 3 5 16 18 30 13 14 26 23 28 20 3 -3 -5 -16 -18 -30z m-195 11
c-11 -8 -23 -12 -28 -9 -13 8 3 23 26 23 20 0 20 0 2 -14z m105 11 c0 -2 -15
-16 -32 -33 l-33 -29 29 33 c28 30 36 37 36 29z m165 -17 c-10 -11 -20 -18
-23 -15 -7 6 18 35 31 35 5 0 2 -9 -8 -20z m39 -15 c-4 -8 -11 -12 -16 -9 -6
4 -5 10 3 15 19 12 19 11 13 -6z m-306 -9 c-7 -8 -15 -12 -17 -11 -5 6 10 25
20 25 5 0 4 -6 -3 -14z"/>
</g>
</svg>
